<svg id="Layer_1" data-name="Layer 1" xmlns="http://www.w3.org/2000/svg" viewBox="0 0 538.51 750">
  <defs>
    <style>
      .cls-1 {
        fill: #fff;
      }
    </style>
  </defs>
  <title>flower1</title>
  <path class="cls-1" d="M309,392.57a2.89,2.89,0,0,0,0,.29l.19-.06Z"/>
  <path d="M182.56,618.78c.27-.53.55-1,.83-1.49-.18-.51-.38-1-.55-1.55l-.18.65A18.18,18.18,0,0,1,182.56,618.78Z"/>
  <path d="M462.14,231.92l-1.94.1a14,14,0,0,1,1.75.25l-.07-.09Z"/>
  <path d="M279.42,440.34l-.11-.56-1.06.63Z"/>
  <path d="M454.33,122.29v0l.81-.07Z"/>
  <path d="M455.53,122.21l-.38,0,.38,0Z"/>
  <path d="M492.25,241.19a91.43,91.43,0,0,0-7.37-16.11c-2.9-4.82-4.24-10.87-5.1-16.55-.89-5.91-5.24-11.34-4.69-16.61.63-6-.86-10.69-2.45-16.25l1.53-1.7c-1.34-8.52-2.63-16.62-3.87-24.49.6-2.62,1.77-5.27,1.67-7.87-.24-6.26,1.65-12.77-1.37-18,.67-2.21,1.17-3.89,1.72-5.73H454.55c0,1.88,0,3.13,1,4.35.06,0,.06,0,0,0a8.91,8.91,0,0,1,1.38,4.75l-1.62.22c-.32-1.63-.63-3.25-1-4.87-3.07.25-5.36.15-7.93,1.44a38.71,38.71,0,0,1-21,3.51c-9.73-.87-12.63-.25-21.14,4.25l1.14,3.37,2.82-2.52c.93.8,1.95,2.35,2.76,2.25,1.75-.22,3.41-1.87,5.09-1.85s3.52,1.68,5.36,1.91c2.87.35,6.46,1.18,8.62-.1,7.83-4.65,15.93-1,23.5-2.49,3.28,7.71-2.19,12.59-4.06,18.22,1.61,2.86,3.13,5.57,5.06,9v14c5.56,3.61.16,10.16,4.1,14.61,3.16,3.58-1.49,9.88,3.42,13.51-1.11,4.52-2.22,9.05-3.3,13.43-2.12,0-3.8-.12-5.45,0-1.27.13-1.39,3.25-3.41,1.66-.37-2.34-.7-4.46-1-6.58-.89,6.17-9.9,10.23-5,18.53l7.65-9.46,8,8.07c-.92,7.34-10.41,3.26-12.34,9.51l4,1.44c-1.93,3.86-3.87,7.71-5.58,11.13l-12-5.4c1.32,4.14,2,6.29,2.77,8.64h-3.34c-.75-1.62-1.53-3.3-2.36-5.07-8.75,11.5-8.75,11.5-16.63,14.17-2.42,3.57-4.83,7.15-7.56,11.2v5.93c-2,1.62-3.3,2.72-4.52,3.7a13.78,13.78,0,0,1,2.16,1.61l-.79.79-1.75-2a4.45,4.45,0,0,1,.38-.36c-5.34.82-10.17,2.05-12.71,7.49a5.85,5.85,0,0,1-3.06,2.59c-3.93,1.48-8,2.67-13.13,4.35l6.22,5.08c-10.91,2.06-16.08,14.11-28.12,13.88.76,2.17,1.15,3.26,1.57,4.46.8-.75,1.39-1.31,2-1.85.3-.28.61-.76.92-.76,3.33-.06,7,.89,9.89-.29s4.34,5.43,7,.77a12.52,12.52,0,0,0,2.66,1.58c4.45,1.36,8.94,2.6,13.8,4l.58,5.18,25.08,9.7-12.62,8c-.25,2.29-.45,4.21-.71,6.65l-3.81-3.45c-.44,2.73-.8,5-1.17,7.29-3.48.12-3.94,2.95-5.47,5s-4.31,3.12-7,4.95l2.41,4.35-4.2,5.39V365.08c-6.36-8.17-11-15.14-17.12-21.27s-9.66-15.07-17.74-19.15c-.43-2.72-.78-4.94-1.12-7.13h-8.9c-1.26-9.06-7.59-13.67-15.7-15.92,3.38-13,14-20.38,22-32.39l-8.69,4.23-1.47,3.94c-1.56-1.86-1.28-3.49-1.63-5a20.43,20.43,0,0,0-1.84-4.08l7.56-3.54,5.37,4,2.73-5.72-3.94-1.84.94-3.88h11.68c2-10,12.43-11.94,16.79-17.64,1.72-5.89,3-10.35,4.37-14.93l2.89,2.63c5.58-12.46,10.82-25,19.37-34.79l6.8-.73v-5.84l-9.53-4.8,3.9-7.59-21.59-7.26c-.44-1.68-.73-2.8-1.12-4.28H365.3l-3.81-3.95L347.92,155l-4.47,4.47c-.56-.32-1.16-1-1.71-.92-4.5.36-9,.68-13.47,1.39-1.42.22-2.66,1.57-4,2.41,0,.82.35,1.95-.05,2.42-4.3,4.92-6.61,11.5-12.43,15.06-.07,1.56-.19,3.06-.32,4.71l-4.26.36c-.16-1.52-.31-2.88-.52-4.72,2.05-.16,3.55-.27,5.1-.35.91-8.09,5.77-13.45,12.48-17.48,3.25-12,10.8-22.17,14.11-34.68-4.68-5.09-.95-11.05,1.37-17.11l-4.61-9.35c-1.65,2.32-3,4.26-4,5.57l-8.05-6.55h7.6L349.29,87.6c.17-.45.52-1.55,1-2.61.6-1.34,1.31-2.64,2.39-4.82-12.65,3.22-23.61,8.77-36.34,8.2l2.57,6.29h-4.18c.65-6.26-4.94-9.21-8.25-13.3-3.77-4.67-6.69-10.42-12.45-13.69V60.21l-9.87-9.36V44.07l-9.31-10.23c-4.17,8.1-8.06,15.68-11.76,22.88-1.37.49-2.91.55-3.49,1.32-6.15,8.3-14.19,14.65-21.51,21.78-14.42,14.05-32,23.41-48.19,34.85-1.83,1.29-4.31,2.53-6.41,2.42-6.71-.38-10.49,3.93-14.51,8-.87.89-10.45,4.83-11.31,4.55-.35-.12-.6-.56-1.09-1.05.06-.94.12-2.07.19-3.35l7.25-1.13c-.19-1.62-.32-2.76-.55-4.68-8.61,2.17-14.26-4.55-20.65-6.59-1.8.85-2.85,1.35-.29,5,2.83,4.16,2.05,5.08,1.4,5.86-.17,5.26,4.4,5.17,7.64,7.19l-19,6.26c-4-3.75,5.1-7.38-.63-10.67.92-3.62,1.85-7.24,2.93-11.44,1.69-1.17,3.21-.54,5,1.63,1.4,1.72,3.73,2.68,2.64,1.17-5.73-8.48-9.79-4.62-13.7-5.68.31,6.83-1.32,13.06-2,19.24-.76,6.73-8,9.58-7.72,15.62.35,7.42-5.06,11.38-8.13,17.83-8.27-2.14-14.66,8.89-23.24,3.19L77,171.85c-4.62-2.26-9-1.76-19.11,2.42l-12.44-7.69L41.75,171c9.55,11.71,10.63,26.86,15.31,41l3.16.67,3.37,10.25C59,229,54.76,234.76,50.12,241c3.17,5.54,5,11.91,9.23,15.25,4.51,3.57,6.77,7.83,9.55,12.33s6.7,8.48,9.36,11.75c-1,2.79-2.28,4.58-1.84,5.63,3.46,8.24,2.13,16.84,2.34,24.26C72,321.81,65,332.25,54.4,340.19H49.67c-.47,1.39-1,2.84-1.62,4.73-5.81-.46-9.34,3-12.63,8.71l20.42,17c8.49-2.88,12.69,5.34,19.43,7.39,6.39,1.95,12.2,5.8,18.45,8.91-5.42,4.42-13.42,4.57-17.52,10.76,1.7,4,3.17,7.89,7.46,9q.32,3.53.52,5.82l4.46.91c.09,1.92.16,3.53.26,5.84,6.1,5.59,11.4,12.43,13.32,20.92l3.79.77c.26,2.33.48,4.3.7,6.2l4.63,1.69c-.13,1.29-.25,2.42-.47,4.57l-.24-.08c3,4.37,5.64,11,10.7,13a3.3,3.3,0,0,1-.22-.3c5.21-1,8.68,0,12.62,1.58s9.88-1.17,13.4.78,6.49,0,9.84,1.66c3.7,1.81,9,.41,13.57.41,4.17,0,8.35-.15,12.51,0s8.45.71,13.72,1.19c2.27-.9,5.76-2.92,9.48-3.57,4.05-.72,8.53.64,12.43-.39s7.35-2.88,11.54-2.31c6.46.89,11.84-1.33,16.51-6.35-2.29-16.05,8.81-26.68,16-39.35l5.17,2.49,4.4-2.29,3.92,3.71c-4.31,7.1.42,16.93-7.07,23,.8,8.65-4.2,15.8-6.32,23.68s-5.36,15.29-8,23-7,14.67-9.4,22.36c-2.47,7.94-8.39,13.82-10.79,20.76l8.51,14.12c2.51-7.61,4.94-14.95,7.33-22.18l3.62,3.22c-.5-4.06-.84-6.92-1.36-11.12l9.26-7.2-3.18-5c4.34-9.17,8.78-18.58,13-27.4l-3-6.78,5.06-1.87c.32-3-.2-6.25,1.06-8.51,4.12-7.38,4.69-15.2,3.3-23.26h0c-.07,0-.06,0,0,0a8.9,8.9,0,0,1-1.38-4.74l1.62-.22c.28,1.44.56,2.89.85,4.33,1.27-.79,2.19-1.55,2.28-2.4a23.75,23.75,0,0,0-.86-9.48c-.07,0-.06,0,0,0a8.8,8.8,0,0,1-1.37-4.75l1.61-.22c.27,1.35.53,2.69.79,4,4.4-4.34,5.12-9.56,5-15l8.31-9.16-5.8-6.46c0-3.38.32-6.34-.1-9.2-.38-2.64-1.57-5.16-2.37-7.63,1.33-2.19,2.61-4.32,3.89-6.42,3.51,2.17,5.13,5.93,3.16,8.51-3.12,4.11,4.12,9.12-1.81,12.29,0,0,.24.55.39.88h9.39c3.47-6.56,7-12.61,9.89-18.94,1.44-3.13,2.72-6.87,2.38-10.15-.47-4.53-2.7-8.84-3.88-13.33a48.4,48.4,0,0,0-5.76-13.92c-.84-1.32.1-3.78.27-6.37l4,3.61,4.92-2.87c2.12,5.35,4.9.82,6.87.54l16,6.21c.38-2.49.71-4.61,1.13-7.35,2.23,2.23,3.7,3.71,5.18,5.18a32.64,32.64,0,0,1,4.42-.59c8.62,2.33,11.07,11.75,18.21,15.87a21,21,0,0,1,6.13,6.18c.8,1.13.16,3.2.47,4.79.11.6,1.06,1,1.66,1.59l5.95.36c-.28,2-.45,3.12-.64,4.44l-3.17-1.53c-4,1.85-8.95,2.58-10.64,5.33-3.14,5.12-7.19,5.78-12.3,6.73s-11,2.09-14.59,7.2l-2.36-2.07-6.26,3.15,2.69,4.67c-2.16,1.71-3.84,3-5.39,4.22a13.69,13.69,0,0,1,2.16,1.62l-.79.79c-.58-.69-1.17-1.37-1.75-2.05.17-.16.33-.33.38-.36-3.36,1.34-6.61,2.55-9.91,3.78-.18,1.84-.38,3.81-.56,5.63l-12.19,3.39V400.31h-7c-1.25,11.16-2.4,21.44-3.28,29.36,4,4.79,6.52,7.74,8.94,10.59l3.56-2.72c.19,2.84.33,4.8.48,7l3.8,1.35,4,10.24c2-2,3-3.4,4.34-4.27,18.21-11.59,36.69-22.88,53.2-36.78,7-5.9,14.94-11.39,19.49-19.68a13.69,13.69,0,0,1-2.16-1.62c.27-.26.53-.52.79-.79l1.75,2.05a4.6,4.6,0,0,1-.38.36,62,62,0,0,1,5.87,3.24l2.67-6.22,2.38,2.38c3.29-2.12,6.28-4.91,9.81-6.15,5.41-1.9,8.86-5.94,11.72-10.13,1.84-2.7,2.49-5.83,6.49-5.8.89-4.9,6.25-5.31,8.7-8.67,2.59-3.54,5.36-6.94,7.92-10.49,1.34-1.86,2.12-4.2,3.67-5.84,8-8.45,8.52-9.61,7.59-19.79-3.82.52-7.24-2.83-11.19-1.15-3.69-4.35-9.46.61-13.71-3.36-3.17-3-8.28.31-12.72-2.46-3.69-2.3-9.32-1.44-14.06-2.13-4.22-.62-8.41-1.46-13.13-2.29,2-5.82,7.48-6.43,11.19-7.78,5.32-1.94,6.73-6.26,9.89-11.19v-7.53c7.42.51,13-9.44,20.54-2.93,8.47-5,14.73-13.92,25.6-12.06l4.56-10L475,263.2c2.44-2.82,8.29-5.58,7.32-12.92C485.62,247.25,489,244.17,492.25,241.19ZM350,247.5h1.25v5H350ZM130.77,143.35l6.09,5.57c-.68,1.35-.93,2.76-1.75,3.31-2.51,1.69-5.24,3-8,4.58l-3-3.06ZM101.34,361.06h2.5v.84h-2.5ZM79,350.47l-.49-.49a4,4,0,0,1-1.22,2.5l-.79-.79,2-1.75.49.49a3.92,3.92,0,0,1,1.22-2.5l.79.79Zm14.8,8.92h-2.5v-.83h2.5ZM82,224.33c-1-3.66-1.89-7.52,1.52-10.65l-5.85-5.84L71,211.14c.69-4.46,1.13-7.31,1.64-10.64l-6.23-3.59V186.27a15.9,15.9,0,0,0-1.3-1.28c-.64.47-1.21,1-2.24,2l-6.27-3v-6.08l1.18-.3,1.4,3.67,11.27-1.63,1.33,5.17,3.2-1.91c2.91,2.93,7.17,3.14,11.47,3.47,4.77.38,9.53,1.11,14.6,1.72l-9.63,18.81,4.16,1.08c.68,2.59,1.35,5.17,2.29,8.8-1,2.71-2.47,6.52-3.84,10.11C89.25,227.58,85.2,228.68,82,224.33Zm13.5,128.38h-.83v-2.5h.83Zm5.08,47.34,1.5,7.11L95.7,401Zm42.93,27.42-1.24.17-.92-4.23,2.16-.1Zm5.66-9.36-.38-.39-.11-.08c0,3.39-2.32,3.45-3.91,2.11-3.55-3-5.94-1.87-9.61.29-6.93,4.08-14.56,7-22.45,10.61l-6.19-6.56c-.22-2.42-.4-4.35-.54-5.88l-4.5-.91c4.59-5.7,1-12.05,3-18.1,5.65-3.53,12.28-6.9,17.9-11.49,3-2.5,5.83-2.3,9-2.43h.08c0-1.49.13-3,.28-5l4.78.32-3.82,5.89-1.31-1.24h0c1.22,3.68,2.35,7.36,3.78,12l6.08,3.47v11.12l7.49,5.8v0l.11.1.15.12a7.22,7.22,0,0,1,1.49-2.27l.79.79Zm16.14-.23a16.66,16.66,0,0,1-2.54-2.57,23.63,23.63,0,0,1-1.58-3.84l2-1.38c1.23,2.14,2.46,4.29,3.7,6.43Zm-3.36-60.59c-.05-.42-.09-.85-.14-1.27l6.57-.95.22,2.22Zm-4.71-210.4,11-5.4c.36,2.14.59,3.54.9,5.4ZM269.76,88c2.75-5.75,3.51-11.89,4.83-18,1.61-7.5.53-15.88,6.64-23.7.62,15.72,10.83,26.61,17,40.74,5.5.38,6.17,4.71,6.3,8.55l10.6,8.07c-6.48,2.59-10.46-.59-14.72-3.61-.69.6-1.55,1.37-2.53,2.24-1.36-1.46-2.75-3-4.64-5a43.89,43.89,0,0,0-5.58.06c-1.48.19-2.9.9-5.37,1.72l-9.7-6.34-2.21,2c-.4-.63-1.14-1.28-1.16-2C269.21,91.11,269.1,89.32,269.76,88Zm9.59,135.26v9.27c-1.5-.71-2.48-.87-2.59-1.28-.95-3.37-1.74-6.79-2.51-9.9,1.85-5.36,3.06-10.76,5.57-15.47,1.86-3.5,3.23-7.3,8.35-9.21,5.67-2.13,10.13-7.49,15.4-11.66a23.61,23.61,0,0,1,.64,3.47,22.45,22.45,0,0,1-.36,3.36l-4.17,1.08v6.59l-7.19.81C289.88,212,286,219.17,279.35,223.21Zm11.54-5.77v2.5h-.84v-2.5Zm-23.38,67.64h.83v2.5h-.83Zm-20.88,68.47h2.51v.83h-2.51ZM197.07,135.49c17.47-1.75,30.94-11,44.36-20.71a14.25,14.25,0,0,1,2,.59c.3.13.44.62,1,1.51-2.4,5.07-7.55,8.09-11.16,12.4-3.16,3.78-10.25,3.63-10,10.45H208.93l-13.39,8.81c-1.46-2.52-2.71-4.66-4.63-7.95l-4.12,6.33H176.16C181.62,138.85,191.69,140.89,197.07,135.49Zm15.81,217L217,361.1,210.32,366c-.72-1.88-1.38-2.7-1.2-3.25C210.17,359.53,211.41,356.4,212.88,352.48ZM209.5,348v-9c2.35,3.13,3.76,5,5.76,7.71Zm-22.3,4.81c-5,.6-9.9,1.62-15.35.82,3.13-1.13,6.21-2.39,9.39-3.35s7.15-1,10-2.69c4.92-2.86,9.79-2.18,14.76-2.38.36.94.72,1.87,1.09,2.8l-6.67,4.39C196.12,347,191.76,352.21,187.2,352.77Zm72.62,35.14c-.45,1.75-.75,2.88-1.16,4.45H253L222.57,405.6c-2.58.37-8.56-1.92-14.67,3.19-4.2-6.52-6.66-12.62-6.35-20.19l7.51-4.94-5.45-2,7.62-5.29v-6l-4.18,2.14c-.21-1.27-.41-2.41-.75-4.38l6-.47,5,6.29,3.18-6.72c.64,1.89,1.14,3.34,1.7,5l6.17-4.22c-3.44-2.77-5.75-4.64-8.36-6.76L226,352V361l14.77,6.1,2.65-2.24,7.36,8.49,4.5-2.46c3.93,2.12,9.46,3.08,9.74,11.35l2.66-7.77,2.81,8.16C269,384.89,265.77,388.77,259.82,387.91Zm-1.75-27.79c2.71,4.65-1.14,5.41-2.83,7.73C252.52,363.2,256.38,362.44,258.07,360.12Zm9,52.32v-4.16l1.19-.19c.33,1.36.65,2.72,1,4.08Zm7.83-23.32-5.34,3.33C269,389.26,268.26,386.27,274.93,389.12Zm1.76,63h-2.5v-.84h2.5Zm-4.58-44.16v-8.57c1.92,3.25,3.13,5.32,4.64,7.88Zm21.1-40.41c-.58-.68-1.17-1.36-1.75-2.05L292,365a3.88,3.88,0,0,1-2.5-1.22c.26-.26.53-.52.79-.79.58.69,1.16,1.37,1.75,2.05l-.49.49a4,4,0,0,1,2.5,1.22Zm15.21-39.85h-.83v-2.5h.83Zm2.57-9.92-3.05-2.54c-4.17,15.1-13.74,27.41-21.21,42.08a30.72,30.72,0,0,1-4.82,19.49c3.35,6.49,3.39,6.58-4.9,18.08,0,.23,0,.45-.05.67l-.25-.24,0,0a7.19,7.19,0,0,1-1.48,2.27c-.26-.26-.53-.52-.79-.79l2.05-1.74.24.24.3-.43c.3-4.66-2.26-9.64,2.1-13.56.62-.56.4-2.5,0-3.63-2.26-6.94-4.63-13.86-7-20.75-1.91-5.43-6.05-9.67-6.48-16.13-.34-5.15-2.56-10.6-4.34-15.54-4.05-11.28-5.58-23.09-10.34-35.7l9.27,5,16.09-2.88c.4-.69,1.69-2.85,2.16-3.64,9.92-1.53,16.84.5,21.88,7l3.9-3.17v5.7c4.82,2.58,4.32,7.68,5.65,11.92L315,311.3C313.57,313.61,312.35,315.55,311,317.74Zm.77,119.31h-2.5v-.84h2.5Zm5.75,10.78c-.26-1.34-.52-2.68-.79-4a12.76,12.76,0,0,0-1.89-.85l2.16-.11-.17-.87a4,4,0,0,1-2.4-3.81L316,438l.78,4a12.92,12.92,0,0,0,1.9.85l-2.17.11.17.87a4,4,0,0,1,2.41,3.81Zm76-60.26h-3.25l-2.34-11.68,3-1.23C391.6,379.17,396.6,382.07,393.49,387.57Zm46.87-47.38h.83v2.5h-.83Zm-7.85.72a10.61,10.61,0,0,0,1.74-1l.49.49,0,0a4.88,4.88,0,0,1,1.22-2.5c.26.27.52.53.79.79l-2,1.71a14.75,14.75,0,0,0-.26,1.63c0-.38,0-.75,0-1.13h-2C430,342,427.35,342,424.7,342l0-1.13ZM455,242.09v-4.15l1.19-.2c.33,1.36.65,2.72,1,4.08Zm7.09,4.57h-2.51v-.83h2.51Zm4-29.45-1.68-2a16.53,16.53,0,0,0-1.75-.24l1.94-.1.19-.19,0-.08c-2.24-1.26-2.39-2.84-2.52-4.42l1.61-.22c.31,1.55.61,3.1.91,4.64l.06,0,0,0,0,.18h-.22l-.26.26.07.08a4.67,4.67,0,0,1,2.47,1.18Z"/>
  <path d="M462.32,231.66v.07l0,0Z"/>
  <path d="M455.53,122.21h0C455.59,122.22,455.59,122.21,455.53,122.21Z"/>
  <path d="M434.52,342a14.75,14.75,0,0,1,.26-1.63l0,0-.49-.49a10.61,10.61,0,0,1-1.74,1h2C434.51,341.29,434.52,341.66,434.52,342Z"/>
  <path d="M277,395.52c0-.22,0-.44.05-.67l-.3.43Z"/>
  <path d="M318.72,442.83a12.92,12.92,0,0,1-1.9-.85l.17.87-2.16.11a12.76,12.76,0,0,1,1.89.85l-.17-.87Z"/>
  <polygon points="131.31 385.27 131.32 385.28 131.33 385.28 131.31 385.27"/>
  <path d="M148.67,417.64l.11.08-.11-.1Z"/>
  <path d="M278.23,440.42h0C278.17,440.42,278.16,440.42,278.23,440.42Z"/>
  <path d="M278.23,440.42Z"/>
  <path d="M240.14,603.2c.08-.13.17-.25.26-.37-1.07-3.39-3.15-5.92-4.37-8.73-1.44-3.32-1.87-6.49-.9-9.17,1.09-3,1.92-6.23,4.76-8.58,3.77-3.13,8.12-5.48,12.7-8l6.47,7.08c.57,5.42.34,6.5-2.66,13l3.43,1.61c2-.85,4.22-2.81,6-2.33,3.52.95,3.81-2.9,6.84-1.62.36-.78.59-1.36.89-1.9a52.65,52.65,0,0,1,3.09-5.35,6.53,6.53,0,0,1,3.16-2.72c2.45-.67,4.95-1.48,7.28-2.2s5.31-.53,7.79-1.67c3.32.41,6.26-1.89,8.89-3.09l5,.77c.6.91.92,1.4,1,1.53l4,.3a6.83,6.83,0,0,0,.38,7,8.12,8.12,0,0,1,1.26,4.92c-.26,2.25.93,3.3,2.87,4.9,2.21,1.84,5.45,3.91,4.17,7l4.42,3.4,2.67.11,1.76,2.92c-1.65,3.41-7.15,1.73-8.17,5.16l-21.9,7.3c-4-1.47-5.79,1.73-9.33,2.19l-5.79-2.73-2,1.79-.79-1.45c-1.8-.46-3.17-.84-4.54-1.14-1.64-.36-3.29-.63-5.47-1,.57-4.41-4.54-1.84-6.69-4.42-1.88-2.27-5.91-3.26-8.77-5.53-2.13-1.69-5.94-1.73-9.16-2.54l1.67,3,6.6,3.1c1.51,2.24,3,3.87,3.71,5.62,3,7.85,1,15-.06,22.31-.52,3.63-4.83,4.27-7.73,6.36.73-6.29-5-12.13-4.24-18.23A24.49,24.49,0,0,1,245,606.92l-1.87-.88C242.66,604.79,241.32,604.1,240.14,603.2Zm54.22,4.61.47.22.54-1.14-.47-.23Z"/>
  <path d="M236.45,563.05c-4-6.08-1.37-12.75-2.51-18.38l-3.51-4.16-3.75,3.76,2.12,2.33c-.77,1.48-2.28,3-2.07,4.22.75,4.36-1.57,7.8-3.09,11.32-1.84,4.26-4.09,8.64-7.23,12-3.36,3.56-2.87,9.09-8.14,12-3.51,1.92-5.3,7.41-7.29,11.57s-6.89,5.21-8.57,8.77c-1.82,3.85-5.7,5.36-9,10.88a10,10,0,0,1,.53,2c.05.31-.63.71-1.13,0-1.18,2.79-4.9,6.53-7.55,7.53a2,2,0,0,0,0,.24c-11.15,29.49-26.8,56.7-43.28,83.26-1.16,1.4-2.31,2.81-4.84,5.89l24.47-7.33,7.56-10.21v-10c2.16-4,3.26-6.55,4.82-8.78,4.06-5.81,5-13.56,9.1-18.63,5.61-7,9.58-13.64,8.16-23.85l4.69,3.94c-.08-7.56,4.13-12,9.52-16,1.84-1.35,1.78-4.49,5.17-5.38,1.46-.38,1.22-5.33,2.89-7.18,3.3-3.64,4.65-8.48,10.09-11.11,4.2-2,6.15-8.73,9.11-13.35,2.7-4.21,5.12-8.65,8.2-12.56C233.66,572.27,237.9,565.22,236.45,563.05Z"/>
  <path d="M203.83,607.38a2.07,2.07,0,0,0,.52,0c.21.45,1.14-.2,2.17-1,3.85-1.51,6.7-1.12,8-2.35,5.79-5.52,15.77.61,20.2-7.71,7.23,1.41,12.26-3.75,17.75-5.32.32,2.37,1.16,4.61,0,6.71l-.08-.19-21.23,6-1.76,3c-12.23-2.4-19.64,8.53-29.59,10.7C199.7,614.42,201.72,609.55,203.83,607.38Z"/>
  <path d="M280.73,427.9h0Z"/>
  <path d="M280.74,427.89l1.18-.07c-.05-.29-.11-.58-.17-.86C281.44,427.27,281.1,427.58,280.74,427.89Z"/>
  <path d="M280.73,427.9h0C280.67,427.89,280.66,427.9,280.73,427.9Z"/>
  <path d="M378.77,118.29l-11.61-6c-1.12,7.81,6.45,6.2,8.31,10l2.89-2.25,4.7,4.7c3.46.56,7.54-1.32,10.12,2.54l2.27-2,6.47,3.32v5c-5,.78-5.15,6.38-7.58,8-9.69,3.91-15.82-4.23-23.82-4.55-1.76-.07-.95-5.68-5.16-4.9-4.11-9.34-12.42-14.45-20.11-20.26-1.71-1.29-2.65-3.61-5.34-7.46,10.76,2.25,17,7.81,25.82,14.59-2.72-6.26-4.35-10-5.53-12.69,1.21-10.8,2.35-20.86,3.51-31.25l-3.55,1.8c.7-5.7.7-5.7,9.19-10.27,0,6.29.7,12.07-.15,17.61-.93,6,1.91,11,2.9,16.44C373.05,105.74,375.79,110.63,378.77,118.29Z"/>
  <path d="M400.07,104.08l4.59,4.6c-3.11,5.29,4.79,10.17,1,16.92l-5.55-3.73Z"/>
  <path d="M424.85,252.18l-9.69,3.72c-.42-2.42-.61-3.54-.91-5.27H424.5Z"/>
  <path d="M390.08,117.46l8.26-4.57-4.86,10.94Z"/>
  <path d="M309.26,392.79c.4,3.89-1.06,6.54-5,7.52C303.85,396.42,305.3,393.77,309.26,392.79Z"/>
  <path d="M437.39,239,433,244.32c-.59-3.13-.85-4.52-1.18-6.26l3.88-.74Z"/>
  <path d="M386.72,115.7v3.6H382.4l-.88-1.19Z"/>
  <path d="M378.76,342.89h2.71v4.31l-1.09.79Z"/>
  <path d="M365.4,153l5.28,3.3C364.61,156.81,364.61,156.81,365.4,153Z"/>
  <ellipse cx="399.44" cy="206.17" rx="3.54" ry="0.89"/>
  <ellipse cx="340.57" cy="342.69" rx="0.89" ry="3.54"/>
  <path d="M344.76,312.17V308l1.23-.17.91,4.18Z"/>
  <path d="M366.61,365c.59-.68,1.17-1.36,1.75-2.05l.79.79-2,1.75Z"/>
  <path d="M367.14,365.46c-.58.69-1.17,1.37-1.75,2.05l-.79-.79,2-1.75Z"/>
  <ellipse cx="355.6" cy="78.41" rx="1.77" ry="0.59"/>
  <path d="M309,392.57l1.74-2.05.79.79-2,1.75Z"/>
  <path class="cls-1" d="M276.69,395.3c.9-4.63-2.15-9.9,2.42-14,.62-.56.4-2.5,0-3.63-2.26-6.94-4.63-13.86-7-20.75-1.91-5.43-6.05-9.67-6.48-16.13-.34-5.15-2.56-10.6-4.34-15.54-4.05-11.28-5.58-23.09-10.34-35.7l9.27,5,16.09-2.88c.4-.69,1.69-2.85,2.16-3.64,9.92-1.53,16.84.5,21.88,7l3.9-3.17c0,2.61,0,4.16,0,5.7h-4.42c-1.09,4.86-5.73,9.31-1.74,15.07l2.63-.27q1.78-7.41,3.53-14.8c4.79,2.58,4.29,7.68,5.62,11.92L315,311.3c-1.44,2.31-2.66,4.25-4,6.44l-3.05-2.54c-4.17,15.1-13.74,27.41-21.21,42.08a30.72,30.72,0,0,1-4.82,19.49C285.3,383.34,285.3,383.34,276.69,395.3Zm-7.09-70.6,2.17,0q-.31-4.6-.62-9.21l-1.55.09Zm-7.32-16.87c1,1.91,1.9,3.54,4,7.39v-7.39Zm1.49-5.65L263.5,300l-4.08,1c.07.4.13.8.2,1.19Zm33.39,20,2.15-.14c-.31-1.39-.61-2.79-.92-4.18l-1.23.17Z"/>
  <path class="cls-1" d="M207.9,408.79c-4.2-6.52-6.66-12.62-6.35-20.19l7.51-4.94-5.45-2,7.62-5.29v-6l-4.18,2.14c-.21-1.27-.41-2.41-.75-4.38l6-.47,5,6.29,3.18-6.72c.64,1.89,1.14,3.34,1.7,5l6.17-4.22c-3.44-2.77-5.75-4.64-8.36-6.76L226,352V361l14.77,6.1,2.65-2.24,7.36,8.49,4.5-2.46c3.93,2.12,9.46,3.08,9.74,11.35l2.66-7.77,2.81,8.16c-1.51,2.27-4.76,6.15-10.71,5.29-.45,1.75-.75,2.88-1.16,4.45H253L222.57,405.6C220,406,214,403.68,207.9,408.79Zm-1.35-7.65V402h2.51v-.84Z"/>
  <path class="cls-1" d="M131.4,385.28c1.14,3.67,2.27,7.35,3.7,12l6.08,3.47v11.12l7.75,6c-.23,3.19-2.58,3.25-4.17,1.91-3.55-3-5.94-1.87-9.61.29-6.93,4.08-14.56,7-22.45,10.61l-6.19-6.56c-.22-2.42-.4-4.35-.54-5.88l-4.5-.91c4.59-5.7,1-12.05,3-18.1,5.65-3.53,12.28-6.9,17.9-11.49C125.41,385.19,128.21,385.41,131.4,385.28ZM126,407.4l-.27-2.17-4.08,1,.2,1.2Z"/>
  <path class="cls-1" d="M91.43,206.85l4.16,1.08c.68,2.59,1.35,5.17,2.29,8.8-1,2.71-2.47,6.52-3.84,10.11-4.79.74-8.84,1.84-12.05-2.51-1-3.66-1.89-7.52,1.52-10.65l-5.85-5.84L71,211.14c.69-4.46,1.13-7.31,1.64-10.64l-6.23-3.59V186.27a15.9,15.9,0,0,0-1.3-1.28c-.64.47-1.21,1-2.24,2l-6.27-3v-6.08l1.18-.3,1.4,3.67,11.27-1.63,1.33,5.17,3.2-1.91c2.91,2.93,7.17,3.14,11.47,3.47,4.77.38,9.53,1.11,14.6,1.72Zm-1.78,13.09h.83v-2.5h-.83Z"/>
  <path class="cls-1" d="M298.25,87c5.5.38,6.17,4.71,6.3,8.55l10.6,8.07c-6.48,2.59-10.46-.59-14.72-3.61l-2.53,2.24c-1.36-1.46-2.75-3-4.64-5a43.89,43.89,0,0,0-5.58.06c-1.48.19-2.9.9-5.37,1.72l-9.7-6.34-2.21,2c-.4-.63-1.14-1.28-1.16-2,0-1.59-.14-3.38.52-4.75,2.75-5.75,3.51-11.89,4.83-18,1.61-7.5.53-15.88,6.64-23.7C281.85,61.94,292.06,72.83,298.25,87Z"/>
  <path class="cls-1" d="M197.07,135.49c17.47-1.75,30.94-11,44.36-20.71a14.25,14.25,0,0,1,2,.59c.3.13.44.62,1,1.51-2.4,5.07-7.55,8.09-11.16,12.4-3.16,3.78-10.25,3.63-10,10.45H208.93l-13.39,8.81c-1.46-2.52-2.71-4.66-4.63-7.95l-4.12,6.33H176.16C181.62,138.85,191.69,140.89,197.07,135.49Z"/>
  <path class="cls-1" d="M299.68,199.46l-7.19.81c-2.61,11.77-6.53,18.9-13.14,22.94v9.27c-1.5-.71-2.48-.87-2.59-1.28-.95-3.37-1.74-6.79-2.51-9.9,1.85-5.36,3.06-10.76,5.57-15.47,1.86-3.5,3.23-7.3,8.35-9.21,5.67-2.13,10.13-7.49,15.4-11.66a23.61,23.61,0,0,1,.64,3.47,22.45,22.45,0,0,1-.36,3.36l-4.17,1.08Z"/>
  <path class="cls-1" d="M146.15,121.16l-2.22,2.64c-.17,5.26,4.4,5.17,7.64,7.19l-19,6.26c-4-3.75,5.1-7.38-.63-10.67.92-3.62,1.85-7.24,2.93-11.44,1.69-1.17,3.21-.54,5,1.63C141.29,118.49,143.62,119.45,146.15,121.16Z"/>
  <path class="cls-1" d="M207.13,348l-6.67,4.39c-4.34-5.36-8.7-.15-13.26.41-5,.6-9.9,1.62-15.35.82,3.13-1.13,6.21-2.39,9.39-3.35s7.15-1,10-2.69c4.92-2.86,9.79-2.18,14.76-2.38C206.4,346.11,206.76,347,207.13,348Z"/>
  <path class="cls-1" d="M127.13,156.81l-3-3.06,6.69-10.4,6.09,5.57c-.68,1.35-.93,2.76-1.75,3.31C132.6,153.92,129.87,155.27,127.13,156.81Z"/>
  <path class="cls-1" d="M311.76,179.86c1-8.14,5.82-13.5,12.53-17.53,0,.82.35,1.95-.06,2.42C319.94,169.67,317.63,176.25,311.76,179.86Z"/>
  <path class="cls-1" d="M212.88,352.48,217,361.1,210.32,366c-.72-1.88-1.38-2.7-1.2-3.25C210.17,359.53,211.41,356.4,212.88,352.48Z"/>
  <path class="cls-1" d="M393.49,387.57h-3.25l-2.34-11.68,3-1.23C391.6,379.17,396.6,382.07,393.49,387.57Z"/>
  <path class="cls-1" d="M168.21,141.49l.9,5.4H157.23Z"/>
  <path class="cls-1" d="M215.26,346.7,209.5,348v-9C211.85,342.12,213.26,344,215.26,346.7Z"/>
  <path class="cls-1" d="M255.24,367.85c-2.72-4.65,1.14-5.41,2.83-7.73C260.78,364.77,256.93,365.53,255.24,367.85Z"/>
  <path class="cls-1" d="M311.86,179.76c-.12,1.61-.24,3.11-.37,4.76l-4.26.36c-.16-1.52-.31-2.88-.52-4.72Z"/>
  <path class="cls-1" d="M434.52,342H424.7l0-1.13h9.83Z"/>
  <path class="cls-1" d="M272.11,399.35c1.92,3.25,3.13,5.32,4.64,7.88l-4.64.69Z"/>
  <path class="cls-1" d="M163.17,410.09c1.23,2.14,2.46,4.29,3.7,6.43l-1.57,1.36a16.66,16.66,0,0,1-2.54-2.57,23.63,23.63,0,0,1-1.58-3.84Z"/>
  <path class="cls-1" d="M274.93,389.12l-5.34,3.33C269,389.26,268.26,386.27,274.93,389.12Z"/>
  <path class="cls-1" d="M95.7,401l4.87-.93,1.5,7.11Z"/>
  <path class="cls-1" d="M168.59,357.29h-6.65L161.8,356l6.57-.95Z"/>
  <path class="cls-1" d="M131.31,385.27l.37-5,4.78.32-3.82,5.89Z"/>
  <path class="cls-1" d="M456.5,122.18c.13,1.6.27,3.19.41,4.79l-1.62.22-1-4.9Z"/>
  <path class="cls-1" d="M460.2,232c-.14-1.59-.27-3.19-.41-4.79l1.62-.22c.32,1.64.64,3.27.95,4.9Z"/>
  <path class="cls-1" d="M279.76,427.93l-.41-4.79,1.61-.22,1,4.9Z"/>
  <ellipse class="cls-1" cx="350.59" cy="250" rx="0.89" ry="3.54"/>
  <path class="cls-1" d="M143.5,423.31v4.16l-1.24.17c-.3-1.41-.61-2.82-.92-4.23Z"/>
  <path class="cls-1" d="M455,242.09v-4.15l1.19-.2c.33,1.36.65,2.72,1,4.08Z"/>
  <path class="cls-1" d="M314.83,443l-.41-4.79L316,438c.32,1.64.63,3.27.95,4.9Z"/>
  <path class="cls-1" d="M318.72,442.83c.14,1.59.27,3.19.41,4.79l-1.62.21-1-4.89Z"/>
  <path class="cls-1" d="M267.1,412.44v-4.16l1.19-.19c.33,1.36.65,2.72,1,4.08Z"/>
  <path class="cls-1" d="M277.25,440.46l-.41-4.79,1.62-.22,1,4.89Z"/>
  <path class="cls-1" d="M163.94,622.19c.86-3.05,1.29-4.56,1.72-6.07a20.88,20.88,0,0,1,1.09,3.51C166.8,620,165.85,620.49,163.94,622.19Z"/>
  <ellipse class="cls-1" cx="290.47" cy="218.69" rx="0.59" ry="1.77"/>
  <path class="cls-1" d="M391.7,395.56l-2.05-1.75.79-.79,1.75,2.05Z"/>
  <path class="cls-1" d="M277,395.52l-1.75,2.05-.79-.79,2.05-1.74Z"/>
  <path class="cls-1" d="M327,397.54l2.05,1.75-.79.79c-.58-.69-1.17-1.37-1.75-2.05Z"/>
  <ellipse class="cls-1" cx="458.39" cy="263.27" rx="1.77" ry="0.59"/>
  <path class="cls-1" d="M402.17,282.31l2.05,1.74-.79.79-1.75-2Z"/>
  <ellipse class="cls-1" cx="267.93" cy="286.33" rx="0.59" ry="1.77"/>
  <path class="cls-1" d="M434.25,340l1.75-2,.79.79-2.05,1.75Z"/>
  <ellipse class="cls-1" cx="440.78" cy="341.44" rx="0.59" ry="1.77"/>
  <path class="cls-1" d="M148.67,417.62l1.75-2.05.79.79-2.05,1.75Z"/>
  <ellipse class="cls-1" cx="247.88" cy="353.96" rx="1.77" ry="0.59"/>
  <ellipse class="cls-1" cx="92.57" cy="358.97" rx="1.77" ry="0.59"/>
  <ellipse class="cls-1" cx="102.59" cy="361.48" rx="1.77" ry="0.59"/>
  <ellipse class="cls-1" cx="310.51" cy="436.63" rx="1.77" ry="0.59"/>
  <path class="cls-1" d="M291.5,365.5l-2.05-1.75.79-.79c.58.69,1.16,1.37,1.75,2.05Z"/>
  <ellipse class="cls-1" cx="275.44" cy="451.66" rx="1.77" ry="0.59"/>
  <path class="cls-1" d="M292,365l2.05,1.75-.79.79c-.58-.68-1.17-1.36-1.75-2.05Z"/>
  <path class="cls-1" d="M462.37,231.69l2.05,1.75-.79.79-1.75-2Z"/>
  <path class="cls-1" d="M78.53,350l1.75-2.05.79.79-2,1.75Z"/>
  <ellipse class="cls-1" cx="95.08" cy="351.46" rx="0.59" ry="1.77"/>
  <ellipse class="cls-1" cx="308.01" cy="326.41" rx="0.59" ry="1.77"/>
  <path class="cls-1" d="M79.06,350.43l-1.75,2.05-.79-.79,2-1.75Z"/>
  <ellipse class="cls-1" cx="97.58" cy="529.32" rx="0.59" ry="1.77"/>
  <path d="M304.31,297.6q-1.79,7.39-3.56,14.8l-2.63.27c-4-5.76.65-10.21,1.74-15.07Z"/>
  <path d="M269.6,324.7v-9.15l1.55-.09q.3,4.6.62,9.21Z"/>
  <path d="M262.28,307.83h4v7.39C264.18,311.37,263.3,309.74,262.28,307.83Z"/>
  <path d="M263.77,302.18h-4.15c-.07-.39-.13-.79-.2-1.19l4.08-1Z"/>
  <path d="M297.16,322.19V318l1.23-.17c.31,1.39.61,2.79.92,4.18Z"/>
  <ellipse cx="207.8" cy="401.56" rx="1.77" ry="0.59"/>
  <path d="M126,407.4h-4.15l-.2-1.2,4.08-1Z"/>
  <ellipse cx="90.07" cy="218.69" rx="0.59" ry="1.77"/>
</svg>
