<svg xmlns="http://www.w3.org/2000/svg" viewBox="0 0 67.67 26.85">
  <defs>
    <style>
      .cls-1 {
        fill: #fff;
      }

      .cls-2 {
        fill: none;
        stroke: #000;
        stroke-miterlimit: 10;
        stroke-width: 0.5px;
      }
    </style>
  </defs>
  <title>flower3</title>
  <g id="Layer_2" data-name="Layer 2">
    <g id="Layer_1-2" data-name="Layer 1">
      <g>
        <path d="M33.32,22.54c-1.8-.54-4.25.09-6-1.86-.66-.75-2.08-1.22-.75-2.64.14-.15-.81-1.23-1.14-1.94a11.83,11.83,0,0,1-1.31-3.22c-.42-2.43,1.14-3.63,2.52-5a1.19,1.19,0,0,1,1.84.45c.66,1.6,2,2.93,1.77,4.89-.13,1.2,0,2.31,1.75,1.82,1,1.26,2,2.5,3,3.78.12.16,0,.51.06.73C36,21.9,35.77,22.35,33.32,22.54Z"/>
        <path d="M45.39,15.12c-.18,1.27-.36,2.55-.55,3.83a7.47,7.47,0,0,1-2.76,1.38c-1.64-.92-3.63-1.27-4.81-2.91-.18-.26-.06-.73,0-1.24.2-.31.24-.41.25-.42l-.15.28c-.25.44-.62,0-.19.27,0,0,.08-.08.09-.13-1.12.18-.72-.66-.93-1.16-.35-.82.77-2.46-1.27-2.4-.06,0-.21-.35-.17-.5A28.92,28.92,0,0,0,36,6.25C36,5.32,37,4.44,37.6,3.55A16.71,16.71,0,0,1,38.85,6c.43,1.21,1.26,2.33,1,3.75-.19,1,.4,1.14,1.3,1.19.63,0,1.21.67,1.84,1,.89.46.52,1,.17,1.58l1.4.19.44.17a1.59,1.59,0,0,1,.43.82C45.42,14.8,45.4,15,45.39,15.12Z"/>
        <path d="M17.43,12.13c1.74.37,3.09,1.52,3.13,3.15s.9,3.64-.36,5.36c-.1.14.33,1,.58,1,1.94.28,3.17,1.64,4.47,2.86a1.29,1.29,0,0,1,.21,1.21c-.46.62-.93,1.65-2,.7-.07-.06,0-.24,0-.37a4.14,4.14,0,0,1-1.15.77c-.24.07-.6-.29-.91-.46,1.85-2-1.81-1.58-1.33-3-.17.09-.39.15-.49.3a7.21,7.21,0,0,0-.49,1c-.49-.59-1.63-.92-.75-2,.12-.16,0-.51,0-.77l-1.12.07c-2.15-1.23-1.91-3.88-3.3-5.55,1-1.23-.06-3.46,2-4.15l.37,0,.75,0Z"/>
        <path d="M44.56,13.66c-.09-1.14.11-2.26,0-3.46a5.93,5.93,0,0,1,2.54-5.69,8.19,8.19,0,0,1,.08,2.2c-.15.69,1.54.88.36,1.68.31.42.67,1.23.92,1.2,2.26-.31,3.16,1.59,4.48,2.71a2.41,2.41,0,0,1-.49,3.92,7.28,7.28,0,0,1-2.22.84c-.27.06-.65-.42-1-.65h.15l-.09-.12-.06.13c-1.65.7-2.56-.81-3.82-1.29C44.91,14.74,45,14,44.56,13.66Z"/>
        <path d="M53.3,8.68c-.62-.44-1.27-.85-1.85-1.34-.16-.14-.26-.65-.16-.74C53.05,5,53.36,4.53,53.73,2.84c0-.12,0-.26,0-.37a5,5,0,0,1,.35-.58c.13.19.36.37.38.57a10.3,10.3,0,0,1,.12,2.59c-.26,1.7.92,2.45,2,3.27a6.82,6.82,0,0,0,1.82.7c-.05-.67.16-1.6-.2-2-1-1-.3-1.54.32-2.11.41-.38,1-.54,1.46-.9.63-.53,1.18-1.16,1.76-1.75.44,1.06,1.49,1.9,1.22,3.23a1.53,1.53,0,0,0,0,.37l-1.54-.66-.31,0L61,4.93l0,.3-.3,0c-.46.11-1.24.12-1.31.35a2.23,2.23,0,0,0,.11,1.71c.6.89,1.53,1.55,2.16,2.43.4.56,1.51,1.61-.55,1.53-1.2-.05-.6.5-.19,1,.17.21.06.65.08,1L60.12,13l-6-1.79a21.6,21.6,0,0,1-1.9-1.7c-.37-.63-.37-.63,1-.85l.14.15.11.17-.11-.17Z"/>
        <path d="M17.13,25.66a3,3,0,0,1-.47-.8c0-.12.3-.36.46-.54l1.05,1.29Z"/>
        <path d="M62.91,5.9c1.22-.29,1.74.18,1.58,1.42Z"/>
        <path d="M65.28,8l.8.89-.72.61Z"/>
        <path d="M15.94,12.21l.89-.8.6.72A1,1,0,0,1,15.94,12.21Z"/>
        <path d="M16.86,23.73c-.19-.65-.4-1-.33-1.26s.44-.38.68-.56a2.68,2.68,0,0,1,0,.69A10.43,10.43,0,0,1,16.86,23.73Z"/>
        <path d="M65.28,8l-.79-.71Z"/>
        <path d="M65,10.24c-.09-.08-.25-.2-.24-.23A4.22,4.22,0,0,1,65,9.54l.35.32Z"/>
        <path d="M63.43,10.49l.5.24c-.08.09-.18.26-.24.25a2,2,0,0,1-.51-.21Z"/>
        <path d="M61.37,5.24l-.46.64-.28-.6a.45.45,0,0,1,.49-.21C61.28,5.12,61.37,5.18,61.37,5.24Z"/>
        <path d="M47.05,4.18l.42-.37c.06.15.19.41.15.44a2.05,2.05,0,0,1-.56.26Z"/>
        <path d="M18.88,26c-.09.09-.2.25-.23.24a4.22,4.22,0,0,1-.47-.31l.32-.35Z"/>
        <path class="cls-1" d="M37.11,14.82a.78.78,0,0,1,0-.37c.13-.34.3-.68.45-1,.36.47,1,.94,1,1.41s-.62,1-1,1.45c-.14-.36-.3-.73-.43-1.1A1.48,1.48,0,0,1,37.11,14.82Z"/>
        <path class="cls-1" d="M44.56,13.66c1.12,0,.68.9.83,1.46C44.26,15.11,44.7,14.22,44.56,13.66Z"/>
        <path class="cls-1" d="M43.57,18.33l.5.24c-.08.09-.17.26-.23.25a2.57,2.57,0,0,1-.52-.21Z"/>
        <path class="cls-1" d="M41.78,17.94a2.3,2.3,0,0,1-.49.26c-.06,0-.17-.14-.25-.22a2.3,2.3,0,0,1,.49-.26C41.59,17.7,41.7,17.86,41.78,17.94Z"/>
        <path class="cls-1" d="M15.94,12.21l1.49-.08-.89.8Z"/>
        <path class="cls-1" d="M23.43,25.74l.43-.37c.05.15.19.41.14.45a2.31,2.31,0,0,1-.55.25Z"/>
        <path class="cls-1" d="M50.34,15.06c.68-.1,1.08-.18,1.48-.21,0,0,.1.31.15.47a6.26,6.26,0,0,1-.95.23C50.89,15.56,50.75,15.37,50.34,15.06Z"/>
        <path class="cls-1" d="M50.67,15.58c0,1.13-.9.69-1.46.83C49.22,15.29,50.11,15.73,50.67,15.58Z"/>
        <path class="cls-1" d="M51.77,13.16l-.49-.24c.07-.09.17-.26.23-.25a2.83,2.83,0,0,1,.52.21Z"/>
        <path class="cls-1" d="M48.92,12.94l-.24.5c-.09-.08-.26-.17-.25-.24a2.45,2.45,0,0,1,.2-.51Z"/>
        <path class="cls-1" d="M55.59,9.31a1.89,1.89,0,0,1,2.29,1.28c.07.18-.24.52-.38.79-.4-1.39-2.32.31-2.62-1.28V9.79a.82.82,0,0,1,.4-.44Z"/>
        <path class="cls-1" d="M53.3,8.68l1.54.67.35.35c-.1.13-.21.26-.31.4C53.67,10.39,53.14,9.92,53.3,8.68Z"/>
        <path class="cls-1" d="M61.37,5.24l-.74,0,.46-.65Z"/>
        <path class="cls-1" d="M54.84,9.35l.47-.65.28.61c-.16.22-.32.3-.49.24S54.84,9.42,54.84,9.35Z"/>
        <path d="M54.84,9.35l.75,0-.71.79Z"/>
        <path class="cls-2" d="M0,23.41A41.07,41.07,0,0,0,14.94,22c4.53-1.3,8.52-3.68,13-5.15,4.29-1.41,8.67-1.94,12.82-3.71a130.16,130.16,0,0,1,18.7-6"/>
        <path d="M61.55,10.55a5.28,5.28,0,0,0,2,0,1.74,1.74,0,0,0,1.34-1.31A1.73,1.73,0,0,0,64.47,8a5,5,0,0,0-1-.91,1.73,1.73,0,0,0-1.36-.49c-.7.18-.89,1.11-1.49,1.52A1.2,1.2,0,0,1,59.16,8"/>
        <path d="M64.27,10.18a3.81,3.81,0,0,0,.43-2.92,3.84,3.84,0,0,0-1.77-1.65A3.24,3.24,0,0,0,61.22,5a2.13,2.13,0,0,0-1.57.94A4.6,4.6,0,0,0,59,7.69"/>
        <path d="M61.62,4.69a1.78,1.78,0,0,1,1.75-1.1A9.59,9.59,0,0,1,65.53,4a2.77,2.77,0,0,0,2.14-.24,6.13,6.13,0,0,1-2.5,3.72c-.5.34-1,.6-1.51,1A2.22,2.22,0,0,0,62.75,10"/>
        <path d="M54.41,2.86A7.31,7.31,0,0,0,53.85.21C53.8.1,53.71,0,53.6,0a.25.25,0,0,0-.13.12,12,12,0,0,0-2,6.2"/>
      </g>
    </g>
  </g>
</svg>
