<svg id="Layer_1" data-name="Layer 1" xmlns="http://www.w3.org/2000/svg" viewBox="0 0 460.8 432.08">
  <defs>
    <style>
      .cls-1 {
        fill: #fff;
      }
    </style>
  </defs>
  <title>flower2</title>
  <g>
    <path d="M294.62,378.49a38.34,38.34,0,0,1-3.86-1.72c-2-1.22-4.14-2.44-4.37-5.2-3.18-1.9-2.44-7.09-6.77-8.05-.26,0-.38-.6-.64-.84l-5.68-5.5a27.92,27.92,0,0,1-6.9-.73,7.38,7.38,0,0,1-3.74-2.17c-.57.14-1.15.26-1.72.35a6.19,6.19,0,0,1-2.3-.6,7.79,7.79,0,0,1,.72-2.12c.37-.53.78-1,1.2-1.53a10.34,10.34,0,0,1-.3-1.55,9,9,0,0,1-3-3.43,4,4,0,0,0-2.53,2.22c-.56,1.45,0,3.35.13,4.95-2.64-.7-2.71-.64-2.69,2.57-4.34,1.28-9.22.84-12.31,5.24-1,1.43-2.26.64-3.5-.71-2-2.21-1.17-5.46-3.35-7.7-.77-.79-.14-3-2.31-3.25.23-1.24-2.41-2.2-.36-3.67a1,1,0,0,0,0-1c-1.45-1.14-1.79-2.55-1.8-4.38,0-.88-1.27-2-2.22-2.58a51.79,51.79,0,0,0-5.81-2.8,4.94,4.94,0,0,0-2-.42c-1.91.06-2.31.6-1.8,2.42,1,3.67,1.77,7.44,4.18,10.62a8.27,8.27,0,0,1,1.55,4.34c.17,3.48,2.58,4.92,5.08,6.38a24.22,24.22,0,0,1,2.88,1.45c1.46,1.13,1.22,2.42-.61,3-1.55.49-3.45,1.22-4.78.73-2.12-.79-2.44.33-2.76,1.48-1.29-.73-2.88-2.25-3.58-1.91-3.33,1.61-5.16-1-7.57-2.08a37.47,37.47,0,0,0-5.74-1.9,30.75,30.75,0,0,0-4.23-.48c-.1.88-.22,1.88-.24,2l-9-2.1c2.2-.38,4.54-2.07,7.14-2.69,3.93-.95,6.81-3.63,10.29-5.28,1.47-.7,1.88-1.89,1.78-3.56-.26-4.23.37-8.35,3.24-11.68,1.37-1.6,3.52-2.57,4.79-4.22,2.17-2.84,4.71-2.58,7.37-1.39,2.81,1.25,5.39,1,8.32.18a83.68,83.68,0,0,1,11.55-1.83,3.25,3.25,0,0,1,2,.67c3.25,2.3,6.46,4.66,9.7,7a8.41,8.41,0,0,1,3.41-2.73,41.34,41.34,0,0,0,11.52-7.72,141.62,141.62,0,0,1,5.94-16.33,9.83,9.83,0,0,1,5.54-5.59,10.34,10.34,0,0,1,6.17-4.26l.2,0c1.1-3.38,3.81-6.28,7.27-6.51a66.35,66.35,0,0,1,27.25,4.28h.09a10.31,10.31,0,0,1,9.26,3.71c10.1,1,20.21,1.31,30.28-.73,14.12-2.87,25.62-11.63,37.91-19.44a12.22,12.22,0,0,0-1.45-4.58c-1.64-3.07-2.49-6.52-1.29-10.07a11.25,11.25,0,0,0,.22-5.85,27.48,27.48,0,0,0-2.05-5.88c-1.28-2.93-2.26-6-3.43-9a2.3,2.3,0,0,0-1-1c-4.42-2.48-8-6-11.67-9.38a45.91,45.91,0,0,0-6.7-5.18c-3.24-2-6.69-3.69-10.1-5.53,4.78-4.86,6.58-9,7.43-13.81.65-3.64,1.67-4.41,5.39-4.95,5.78-.83,11.56-1.68,17.33-2.61,1.76-.29,3.87-.39,5.13-1.42,3.41-2.78,6.73-5.8,7.37-10.62.35-2.63,1.91-3.49,3.89-2a13,13,0,0,0,9.38,2.4c7.23-.6,13.08-3.25,17.07-9.52,1.42-2.23,1.17-3.61-1.16-5.13-1.16-.76-1.3-2.2-.28-2.83,3.73-2.35,3.8-2.37,2.4-6.15-.91-2.44-2.07-4.79-3.11-7.18l-2-3c-2.55-2-5.08-4.08-7.66-6.07a5.53,5.53,0,0,0-1.65-.55c.05.68-.16,1.59.2,2a18.69,18.69,0,0,0,3.06,2.45c3.21,2.26,3.74,3.93,2.51,8a26.37,26.37,0,0,1-3.53.19c-3.27-.25-6.6,0-9.1-3.08-1.61-2-4-3.4-6.11-4.92a2.39,2.39,0,0,0-2.2-.12c-1,.8,0,1.35.59,1.91,3.32,3,4.71,6.54,3.61,11.13-.75,3.11,3.37,7.94,6.32,7.7,1.71-.13,3.52.05,3.92,1.51.26,1-1.06,2.49-1.88,3.62a4.65,4.65,0,0,1-2.07,1.41c-2.71,1-5.47,1.89-8.19,2.87-1.29.46-1.57-.09-1.91-1.26-1.17-4-2.37-8-3.84-11.86a33.24,33.24,0,0,1-1.84-14.81c.08-1-.13-2.39,1.63-2.54a3,3,0,0,0,.24-2.18c-1-1.53-2.48-2.67-.83-4.84.41-.54-.74-2.32-1.24-3.5-.22-.5-.83-.89-.92-1.4-.49-2.82-1-5.66-1.26-8.51-.43-5.34-.57-10.71-1-16a8.79,8.79,0,0,0-1.54-3.45c-1-1.61-2.42-3-3.07-4.71A14.11,14.11,0,0,0,389.2,101a56.36,56.36,0,0,1-6.26-4.13c-4.36-2.88-8.59-6-13.13-8.55a33,33,0,0,0-10.24-4.11c-6.92-1.17-13.91-.43-20.8.9-.46.09-1.14.68-1.15,1-.06,1.43-.77,1.47-1.89,1.28-.26,0-.59.68-1,.94-1.46,1-1.3,3.31-3.42,3.9-.69.2-1,1.69-1.59,2.74l3.3.24a1.88,1.88,0,0,1-1.45,1.14c-2.31.17-3.52,1.62-4.47,3.52-.67,1.36-1.58,2.61-2.19,4-.28.64-.4,1.89,0,2.18,2.74,2.23,1.94,4.55.47,7-.11.2,0,.55.1,1.22l3.38-2.44c-.19.64-.18,1.23-.48,1.52-2.89,2.82-5.82,5.61-8.76,8.38a1.78,1.78,0,0,1-.95.44c-4.61.47-9.23.9-13.84,1.36-.92.09-2-.08-2.73.37a16.28,16.28,0,0,1-6,1.87c-1.71.33-1.53,0-1.84-1.07-.51-1.68.47-2.28,1.78-2.4,2.18-.19,2.93-1.32,2.69-3.36-2.77-.5-4.73.44-6.63,2.54a70.07,70.07,0,0,1-8.19,7.38,4.59,4.59,0,0,1-3.18.63c-2-.26-2.55-1.91-1.23-3.54,1-1.18,2.06-2.25,3.09-3.38a5.57,5.57,0,0,0-3.32,1.49c-4.54,4.7-9.11,9.39-13.47,14.26-4.06,4.53-7.67,9.47-11.83,13.88-3.35,3.54-7.24,6.56-10.87,9.84-1.93,1.74-3.72,3.65-5.73,5.28-2.28,1.85-.55,5.1-2.67,7-.18.17,0,.94.22,1.32.68,1.21,1.47,2.35,2.17,3.54,1.3,2.23,3.22,2.29,5,.38.74-.78,2.07-1.72,2.92-1.54,2.89.61,5-.86,7.33-2a1.58,1.58,0,0,1,1.33,0,5.44,5.44,0,0,0,4.6.75c.91-.43,1.8-.9,2.89-1.45-.24,4.67-.24,4.81,3.9,4.78,1.06,0,2.08-1.26,3.18-1.8s2.1-.81,3.15-1.21c.75,2.05,2.33,1.3,4.54.51-1.16,1.06-1.79,1.38-2,1.86a5.63,5.63,0,0,0,0,1.92c.67-.09,1.77,0,2-.3,1.65-3.15,5-3.23,7.7-4.45a3,3,0,0,1,3.88.87c1.68,2.12,4.11,1,5.89.79,1.48-.2,2.38-1.82,4,.25s2.23-2.57,4.15-1.06a1.17,1.17,0,0,0,.69.18,5.24,5.24,0,0,0,1.38-.23c2.08-.76,4.13-1.57,6.2-2.36l.13.33-3.38,2.42.23.47,11.52-1.7c-.34.6-.92,1.65-1.67,3,2.07-.71,3.82-2,5.11-1.61,2.15.6,3.78.05,5.7-1.09-1.6,1.77-3,3.2-4.24,4.75-.38.48-.33,1.3-.48,2,.59-.05,1.18-.07,1.75-.17a10.61,10.61,0,0,1,1.37-.35c3.07,0,6.14.09,9.21.19.24,0,.71.39.69.5-.5,2,.91,2.16,2,1.56,1.68-1,4.07-.12,5.32-2.18.14-.24,1.11,0,1.69.05l.23.73-8.78,5.7c1.76,1.15,2.82,1.86,4.55.69,1.19-.8,3-.81,4.5-1,2.5-.34,5.14-.34,5.83-3.61,0-.13,1-.3,1.18-.11,1.31,1.4,1.28,1.37,2.54,1.37a3.93,3.93,0,0,1,2,.44c1.92,1.2,3.49,1.32,4.91-.81.32-.49,1.41-.48,2.15-.69.05,2.93,1.87,1.08,3.16.68l0,.85-34.38,15.54c2.63,1.78,3.94,4.53,7.27,4.37.92,0,1.88.84,2.57,1.17-1.64,2.23-3.15,4.4-4.83,6.43-.32.38-1.31.31-2,.28-5.79-.3-11.58-.89-17.37-.9-9.42,0-18.77.66-27.43,5a5.11,5.11,0,0,0-.95.81c2.09,1.72-.57,2.62-.37,4.17-1.95-1.26-1.84-1.18-2.84.23-.72,1-1.63,2.32-2.7,2.6-4.44,1.19-6.08,5-8.21,8.32a2,2,0,0,0,2.78,2.73c.65-.3,1.18-1.09,1.57-.06a2,2,0,0,1-.83,1.8,35.33,35.33,0,0,1-4.77.63,22.7,22.7,0,0,0,.78,2.48,2.47,2.47,0,0,0,.85.79c1.54-1.48,2.66.34,3.37.86,1.94,1.44,3.55,1.58,5.38.07a4.31,4.31,0,0,1,.56.48L278.36,250c.52.78,2.8,1.36.59,2.43-4.47,2.17-5.08,7.22-8.14,10.44-1.06,1.11-1.31,3-2.15,4.34a2.29,2.29,0,0,1-3.35.92,11.28,11.28,0,0,1-2.07-1.41c-2.24-2.05-4.7-2.14-7.64-1.67-5.91,1-11.9,1.35-17.84,2.06-4.87.58-9.83.88-14.55,2.08a53.78,53.78,0,0,0-11.86,4.93c-2.36,1.25-4.47,1.88-7,1a1.65,1.65,0,0,0-1.05.05c-2.14.81-2.13.81-2.72.67a15.16,15.16,0,0,0-2.48-.51,26,26,0,0,0-3,.14c.29,1,.59,2,.88,3,.07.23.12.46.39,1.55a18.6,18.6,0,0,0-1.64-2,21.65,21.65,0,0,0-4.14-3.39c-1.46-.73-3.25-2.62-4.86-.88s-3.3-.69-4.79.42c-.58.42-1.32.64-1.86,1.1-2.59,2.22-5.13,4.5-7.55,6.63.6-1.22,1.35-2.68,2.05-4.17,1.22-2.59,4.7-5,.63-8-.11-.08-.05-.46,0-.7.37-2.07-1.16-2.86-2.6-3.33a63.31,63.31,0,0,0-7.25-1.76c-1.52-.31-3.2-.19-4-1.91a1.34,1.34,0,0,1,0-1.16c2.9-3.22,2.85-4.39-.49-6.65a34.42,34.42,0,0,1-3.64-2.29,8.58,8.58,0,0,1-1.41-2.59c1.71.13,0-3,2.25-2.35-.72-1.37-1.46-2.73-2.16-4.11-.09-.18,0-.46.11-.82l2.42-.33c-.05-1.5-.56-2.93-.07-3.78,2-3.34,4.07-3.19,5.81.24.38.74.53,1.58.84,2.35a4.56,4.56,0,0,0,.75,1.23,1.66,1.66,0,0,0,.55.41c0-2.77,0-5.47.12-8.17.1-1.87-.16-3.16-2.4-3.54a30.45,30.45,0,0,1-12.59-5c-1.13-.79-2.26-1.56-3.44-2.27a13.35,13.35,0,0,0-2.52-1.23c-2.81-1-5.65-1.83-8.48-2.73.05-.24.09-.47.14-.7l4.07-.49-2-2.74c2.08-.7,2.4-1.36,1.05-2.64a48.12,48.12,0,0,0-5.92-5.15c-6-4.09-12-8.18-18.69-11.09-.85-.37-2.1-.62-2.43-1.29-1.22-2.48-3.88-2.24-5.77-3.41,1.82-1.8,1.69-1.56,3.82-.43,1.5.8,3.39.85,5.11,1.22,1.24.28,2.65.26,3.7.86,2.14,1.24,4,2.88,6.14,4.22a61,61,0,0,0,5.9,3.32,2.45,2.45,0,0,0,1.94-.16,1.73,1.73,0,0,0,0-1.59,39.05,39.05,0,0,0-5-4.81,46.6,46.6,0,0,0-5.73-3.14,1.93,1.93,0,0,1,1.71,0,17.35,17.35,0,0,1,1.81,1.16c-.36-2.6-.87-3.14-3.26-5.45-3.59-3.47-7-7.11-10.53-10.69-.31-.31-.83-.88-.74-1.06,1.3-2.59-.45-3.55-2.27-4.58a2.4,2.4,0,0,1-1-1.35c-.15-.65-1.1-2.73,1-.89.12.11.81-.14.89-.35a1.42,1.42,0,0,0-.1-1.16c-1-1.5-2.13-3-3.21-4.43l.56-.72c1.29.5,2.91.68,3.79,1.58,2,2,1.73-1.92,3.14-1a3.61,3.61,0,0,0,1,.35l2.42.62c-.09-1.24-.16-2.16-.24-3.42,2.22,1.71,4,3.13,5.87,4.47a1.81,1.81,0,0,0,1.25.08,1.45,1.45,0,0,0,.06-1c-.19-.42-.73-.71-.84-1.13a11.58,11.58,0,0,1-.21-2.36c0-.05.57-.24.65-.15a7.65,7.65,0,0,1,1.4,1.72c.3.6.25,1.39.54,2,.13.3.69.41,1.06.6.58-1.59,1.14-.85,1.88-.06a2.58,2.58,0,0,0,3.84-.12c1.06-2,2.34-1.32,3.81-1.25.63,0,1.29-.7,2.17-1.23.73.4,1.86,1.07,3,1.65a3.45,3.45,0,0,0,1.22.12c.07-2.44,1.88-1.34,2.64-1,1,.48,3.61-.89,2.83,2,.67-.06,1.75.09,1.92-.24a3.23,3.23,0,0,0,.32-2.51c-.34-.7-1.4-1.05-2.12-1.55l2.91-2.26.77,2a12.35,12.35,0,0,0,1.51-1.56c1.21-1.76-.08-4.41,2.06-5.9a1.49,1.49,0,0,0-.19-1.32c-.73-.35-1.62-.39-.56-1.44a2,2,0,0,0,.44-1.27c-2.43-1.58-.61-3.65-.52-5.41a68.28,68.28,0,0,1,1.19-7.74c4.25,3.24,4.26,3.33,1.53,7.85-.47.77-.57,1.25.19,2.33,1.09,1.53,1.24,3.78,1.6,5.76s.47,3.72.66,5.58.87,4.11.44,6a13.09,13.09,0,0,0,.14,7.4c1.86-2.55,3.46-4.66,4.95-6.85a2.91,2.91,0,0,0,.26-1.75,56.32,56.32,0,0,1,.47-10.05c.32-3.81-.69-7.76-1.31-11.62-.36-2.28-1.08-4.5-1.64-6.75,1.3-.62,2.83-1.28,4.27-2.1.37-.21.47-.89.69-1.36-2.33-1,.45-3.38-1.18-4.6.44-.32.86-.89,1.33-.94,2.37-.22,2.66-.56,1.9-2.67a10.31,10.31,0,0,1,.62-8.65c.57-1.12.54-2.33-.73-2.69-2.74-.78-2.45-2.75-2.26-4.79.07-.71.08-1.42.16-2.12.66-5.74,1.32-11.47,2-17.19.06-.47.7-.87,1.06-1.29.32.43.83.83.91,1.3.55,3.28,1.06,6.56,1.49,9.86.14,1.09.65,2.71-1.62,2.09-.17,0-.73.56-.76.89-.16,2.31-.3,4.62-.28,6.92,0,.71.45,2,.79,2,2.41.22,2.06,2,2.47,3.56a17.19,17.19,0,0,0,2.53,5.81c1.48,2,3.36,3.65,4.35,6.08.67,1.67,4.16,3.44,5.34,2.67,1.49-1,2.58-.31,4-.13,1.74.24,4.37,2,5-1.65,0-.22.82-.36,1.26-.48l4.88-1.24c.37,1.51.67,2.78,1,4l-.61.32-2.49-2.18c-4.1,3.14-4.27,3.61-3.06,8.8a41.8,41.8,0,0,1,3.77-2.12c1.44-.63,2.07,0,1.82,1.64a9.77,9.77,0,0,0,0,1.53c.52-.19,1.39-.26,1.52-.61.86-2.37,2.57-4.44,2.23-7.26a5.81,5.81,0,0,1,1-3.69c.55-.8,1.89-1.06,3.32-1.79a10.16,10.16,0,0,0-.89,1.91,17.26,17.26,0,0,0-.08,2.16c.62-.18,1.26-.32,1.86-.56,1.92-.78,3.7-1.68,4-4.09,0-.27.92-.37,1.34-.66s1.23-.83,1.17-1.13c-.26-1.38.44-1.64,1.54-1.85a13.12,13.12,0,0,0,2.4-.94c-.58,1.11-1.6,1.63-2.12,2.46-.37.61-.09,1.63-.09,2.47a15.06,15.06,0,0,0,2.49-.8c.25-.13,0-1,.28-1.33a9.78,9.78,0,0,1,1.73-1.3c.07.52.16,1,.2,1.56.07.87.34,2,1.33,1.24s2-.94,2.73,0c.27.34-.52,1.49-.86,2.35,1.07.07,2.24-.15,3.12.26,2,.91,2,1.06,2.72-.58.83-1.94,1.52-4,2.36-6.17l-1.92-.19c.09-.34.12-.94.28-1,2.44-.58,1.81-1.92,1-3.44-.13-.24.29-.79.45-1.2.4.27,1.14.55,1.14.82a34.22,34.22,0,0,1-.25,5.64c-.26,1.75-1.06,3.42-1.28,5.17-.09.69.77,1.5,1.2,2.26.59-.44,1.2-.84,1.74-1.33a2.58,2.58,0,0,0,.49-.93c1.5-3.42,1.65-7.49,4.85-10.1.13-.11.14-.43.15-.65.13-2.2.79-3.12,2.5-2.68s2.78.34,3.65-1.21c.1-.19.61-.29.89-.22a13.77,13.77,0,0,1,1.68.64,12.88,12.88,0,0,0,.63-2.38c0-.69-.36-1.41-.33-2.1.05-1-.39-2.29,1.68-2.18,1.15.07,1.32-2.6.19-2.66-2.5-.15-1.43-1.65-1.59-2.81-.2-1.39-.28-3.7-1-3.94-1.93-.64-1.4-1-.46-2.08,1.73-2,3.3-4.25,4.86-6.44a2,2,0,0,0,.3-1.64c-.75-1.58-.2-2.19,1.37-2.43a1.41,1.41,0,0,0,.84-1c.1-1.56,1.23-1.79,2.38-2.22A4,4,0,0,0,263.18,74c.79-1.61,1.8-3,1.75-5.21,0-1.88-1.51-2.45-1.61-3.89-.31-4.84-4.12-7.35-7-10.48A9.1,9.1,0,0,1,254.07,51c-.41-1.49-.55-2.59-2.53-2.45-1,.07-2.27-.31-1.4-2,.19-.37-.36-1.23-.74-1.73-.51-.65-1.57-1.08-1.72-1.76-.82-3.47-3.36-5.35-6.15-7a65.65,65.65,0,0,0-6.26-3.18c-.33-.15-1,.44-1.46.63a3.85,3.85,0,0,1-1.59.44A46.2,46.2,0,0,1,227,33a2,2,0,0,1-1.1-1.12c-.23-.5,0-1.47-.28-1.66-3.49-2.18-6.57-5.46-10.77-5.85-1.9-.18-4.69-1.42-6.36,1.24-.13.21-1.06,0-1.58-.14-2.64-.72-4.87.7-6.48,2.17-.8.73-1.5,2.54-2.14,3.91-.09.2-.16.58-.05.69,1.71,1.76-.17,3.79.57,5.65a40.49,40.49,0,0,1-2.92-3.18,9.71,9.71,0,0,0-1.18-1c-.26.5-.75,1-.75,1.49,0,1,.57,1.9-1.07,2.49-2.27.8-2.37,1.28-.55,2.8a4.42,4.42,0,0,1,1.23,5.18,20,20,0,0,0-2.14,8.07l-2.07-3.81c-1.12,1.56-2.15,3.06-3.23,4.51-1.47,2-3.34.65-5.67.15,1.61,2.48,2.87,4.42,4.12,6.36l-.49.41L179.69,58c-.64,3.4,2.53,4.93,3,7.51-2.52-.4-2.49-.4-1.9,2.12a10.39,10.39,0,0,1,.09,1.94l-.67.24c-1.56-2.62-1.78-6.15-4.93-7.91-2.19,3.24,2.18,5,1.46,7.5l-3.94-.62c.59,3.25,1.1,6,1.58,8.67L172,76l-.59.56,1.91,3.81-2.51.82c-.12-2.23-.23-4.29-.35-6.35a2.84,2.84,0,0,0-1.9,1.39c-2,4.58-4.09,9.13-5.84,13.8a8.33,8.33,0,0,0-.36,5.37c.78,2-.22,2.49-1.37,3.33a10.68,10.68,0,0,0-2.91,2.41c-3.31,5.35-5.07,11.06-3.5,17.42a3.21,3.21,0,0,1,0,1.74c-.86,2.47-1.8,4.92-2.78,7.56-1.3-2.59-2.6-5-5.13-6.56-1.39-.85-2.25-2.67-3.68-3.32-7.15-3.25-14.05-7-21.57-9.49a36,36,0,0,0-17.64-.9c-2.71.48-5.5,1.1-8.22,1.75a26.25,26.25,0,0,0-6.39,2.26A17.39,17.39,0,0,1,78.47,114c-3.58-.4-7.1-.31-9.81,2.76a5.37,5.37,0,0,1-3.21,1.71c-1.86.35-4.28.79-4.89,3.5-.19.81-1.16,1.46-1.82,2.14-1.62,1.69-3.51,3.13-4.39,5.46a4.81,4.81,0,0,1-1.83,2,6.35,6.35,0,0,0-2.64,3.18c-1.14,2.94-3.76,4.35-6.72,5-2.14.47-3.44,1.47-3.19,3.65.49,4.32-1.29,8.13-2.25,12.13-.33,1.35-1.46,2.69-1.32,3.94s.26,2.13-.67,3.13c-.3.32.07,1.25.13,1.91a4.55,4.55,0,0,0,1.4-.74c2.33-2.59,2.91-2.48,4.28.89.09.22.08.62.21.67,1.49.53,3,1,4.5,1.46.14,0,.43-.46.65-.71-.86-.52-1.72-1-2.56-1.59-.14-.09-.13-.42-.33-1.17a17,17,0,0,0,3.72-.26,6.38,6.38,0,0,1,7.82,3.34c.22.5.93.78,1.42,1.17a14.75,14.75,0,0,0,.72-1.36c.08-.19-.17-.58-.07-.67a5.62,5.62,0,0,1,1.57-1.25c.27-.12.78.33,1.18.52-.33.42-.83.8-1,1.27a17.66,17.66,0,0,0-.3,2.62,21,21,0,0,0,2.11-.32c.4-.11.76-.62,1.11-.59,3.16.24,3.13.23,6.1-2.44.25-.23,1.21.24,1.8.5.24.11.5.75.51.75,3.09-1.92,4.92.73,5.69,2.5,1.37,3.14,5.84,1.45,6.55,4.91.34-.1.71-.35,1-.28a2.79,2.79,0,0,1,1.25.65c3.09,2.77,6,5.85,11.48,5.86-1.25.82-1.69,1.31-2.2,1.39A6.3,6.3,0,0,0,91,184.33a4.52,4.52,0,0,1-.75.95c-1.7-2-3.55-3.17-6.29-2.36a5.94,5.94,0,0,1-3.49-.52c-3.3-1.33-6.55-2.81-9.8-4.27-1.56-.71-2.88-1.14-3.79,1-.22.52-1.4.61-2.11,1s-1.49.83-2.23,1.25l.23.65,3.3,0a3.21,3.21,0,0,1-4.11,1c-.75-.29-1.92-.82-2.29-.52-2.12,1.77-3.55.39-5.22-.71a4.81,4.81,0,0,0-3.12-.94,36.26,36.26,0,0,0-5.53,1.94L47.58,185c-1.35.07-2.36.14-3.38.18-.45,0-.92,0-1.37-.06.46-3.72-2.06-.54-3-1.24-.63-.47-1.86,0-2.66-.37-1.32-.56-1,.13-1,.89,0,1.23-.84,1.71-1.93,1.24-.93-.4-2.51-.67-1.18-2.35.14-.19-.14-.88-.41-1.18A16.57,16.57,0,0,0,31,180.67l-.78-.18-2.43,1.42c1.59,1.9,3.12,3.74,4.81,5.75-1.86.3-3.28.41-4.63.77-1.67.45-3.34,2.64-2.59,3.67s.34,1.87.2,2.87a6.19,6.19,0,0,0,5.63,7.18c3.69.42,7.39.68,11.08,1.08,8,.87,16.07,1.84,24.12,2.63,2.2.22,3,1.19,3.31,3.3a16.88,16.88,0,0,0,8,11.69c2.8,1.81,5.79,3.32,8.67,5a6.41,6.41,0,0,1,1.68,1.27c1.68,1.95,3.14,4.12,5,5.91a16.23,16.23,0,0,0,5.19,3.64c4.29,1.65,8.7,3.22,13.52,2.06-.32,1.74-.71,3.23-.84,4.75-.44,5.3.25,10.75-2.31,15.73a1.82,1.82,0,0,0,0,.71c-.12,3.81-.38,7.62-.33,11.43,0,2.22.84,4.45.78,6.66a31.17,31.17,0,0,0,2.92,13.83c1.46,3.23,2.49,6.69,1.46,10.35-.58,2.06.31,3.5,2,4.53s2.52.45,2.57-2c.89,2.63.2,5.49,3.17,6.44.19.06.16.86.18,1.32.09,1.48.15,2.95.22,4.43l4.19-.68c1.5,1.21,2.34,2.77,1.09,5.08a4.46,4.46,0,0,0-.2,3.14c.35,1.09.42,3,2.74,1.94a1.49,1.49,0,0,1,1.93,1.81c-.21,1.47.62,1.76,1.81,2.12s2.74.91,3,1.75c1.2,3.63,2.83,6.84,6,9.15.45.32.51,1.28.57,2,.3,3.15.28,3.16,3.36,3.32a12.89,12.89,0,0,0,1.67-.11c-.1,1.45-.18,2.85-.29,4.24s.62,2.16,2,2.45c2.41.5,2.39.55,1.51,2.81-.21.53-.39,1.06-.47,1.28,3.39,1.95,6.51,3.82,9.71,5.55a6,6,0,0,0,3.36,1c2.18-.32,3.64.66,5.17,1.86,1.13.88,2.37,1.61,3.53,2.46,2,1.46,3.9,2.08,6.19.34,1-.8,2.61-.93,3.91-1.36l-3.62,5.72c1.89.49,4.22,1.8,5,1.18,2.35-1.89,3.21-.29,5.12,1.56-2.93-1.29-2.61.29-2.68,1.57s.09,2.19,1.62,2.19a18.16,18.16,0,0,1,4.49.08,55.22,55.22,0,0,1,6.2,2.42l-.16.82c-2.08-.57-4-.76-5.63.94-.9,1-1.15,1.82.16,2.61l4,2.39-7,1.37,0,.86a22,22,0,0,0,7.74,1.88c2.27.24,4.16.93,4.87,3.48a2.47,2.47,0,0,0,1.63,1.49c4.6.71,9.22,1.23,13.82,1.9a17.44,17.44,0,0,1,3.12,1.07c-4.27.74-8.39.55-12.48.9s-8.38-.67-12.44,1a92,92,0,0,0,10.48,4.25c2.63.91,5.21,2.08,8.14,1.75a17.64,17.64,0,0,1,4.76,0c1.63.27,3.16,1.34,4.78,1.45,3.75.24,6.49,3.44,10.32,3.32a1.93,1.93,0,0,1,1,.44c3.42,2.18,6.71,1.89,10.06-.3q23.44-15.27,46.95-30.47a23.3,23.3,0,0,0,2.39-1.62C296.25,380.14,296.09,379.17,294.62,378.49ZM201.13,32.71c.29-1.38,1.89-1.66,3.38-1.95s1.5.54,1.76,1.41c.1.33.26.64.45,1.12l-2-2.17c-1.15,2.41-2.16,4.5-3.23,6.75C201.33,36,200.8,34.26,201.13,32.71Zm-4,12.79-2.43-5.62.63-.32c1.11,1.77,3.27,3,2.75,5.62ZM114,157.06a2.08,2.08,0,0,1,.44,1.9,2.25,2.25,0,0,1-1.57,1.18,19.15,19.15,0,0,1-3.59-.24c2.58-2.15,2.58-2.15-.18-4.59A6.87,6.87,0,0,1,114,157.06Zm-9.45,33.66L94,186.07c1.36-.54,3-1.37,4.79.21a2.34,2.34,0,0,0,1.87.22,2.83,2.83,0,0,1,3.22,1.54C104.49,189.09,105.81,189.85,104.52,190.72Zm28.33,29.35c-3,.18-5.75.59-6.42,4.31-.1.56-.9,1.07-1.48,1.45-2.78,1.81-3.75,4.19-2.18,7.71a21.36,21.36,0,0,1-2.93.38c-.41,0-.82-.38-1.23-.59,1.66-2.57-4-4.91-.21-7.69.52-.37.06-2,.26-3,.16-.8,2.31-2.1,3.82-3,3.43-2,7.08-1.24,10.69-1.11.29,0,.57.33,1.21.72C133.7,219.65,133.28,220,132.85,220.07Z"/>
    <path d="M219,207.22a36.12,36.12,0,0,1-4.24-.23,36.44,36.44,0,0,1-4-1.23l1.7-2.92c-.25-.24-.5-.57-.56-.54-4.41,2.25-7.7-.94-11.24-2.46-1.22-.52-1.77-.15-1.61.63.38,1.89-.58,1.74-1.75,1.46-1.67-.39-3-.5-3.6,1.69-.69,2.51-3-.41-4.17,1a8,8,0,0,1-1.21-1.87c-.35-1.11.23-1.57,1.36-2,2.07-.81,2.84-3.4,1.14-4.43s-1.35-2.63-2.45-3.52c-1.89-1.52-1.37-2.63.67-3.51-4.78-2.73-4.66-5.57.07-8.34-.32,1.49-.65,3-1.13,5.22,2.57-1.38,4.75-2,6-3.46.71-.81.33-2.56,2.06-3.18a15,15,0,0,0,3-1.9c-5-2.79-3.26-7.95-4.34-12.42-.58.22-1.28.53-2,.74-2.52.73-5.63-1.28-6.64-4.25-.72-2.1.47-4.09,3.16-5.14,3.08-1.2,6.37-1.84,9.05-4a4.4,4.4,0,0,1,3-.76,4.86,4.86,0,0,0,5-1.79c1.72-2,6.7-.44,7.87,3.4.8,2.59.21,5.59.25,8.42l-5.11,1.78-.29-1.45c-1.2,1.42-2.57,2.83-3.67,4.42a14.29,14.29,0,0,0-2.62,9.5,9.12,9.12,0,0,0,2.37,4.44c.55.64,1.91.6,3.2.94q-1.26,2.34-2.69,4.95a23.21,23.21,0,0,1,4.11-2.26,4.23,4.23,0,0,1,3.24.32c.56.35,3.65-.18,1.5,2.23-.12.13.1.84.28.9,3.55,1.11,1.07,3.06.33,4.23a9.91,9.91,0,0,1-3.68,3.08c-.49.27-1.58-.53-2.5-.89-.51,2.57,2,3.55,3.17,5.22a2.49,2.49,0,0,0,1.59-.68c.46-.67.81-1.34,1.55-.55a2.31,2.31,0,0,1,.3,1.7c-.09.56-.59,1-.78,1.6-.33,1-.67,1.92.82,2.64C216.7,204.46,217.48,205.72,219,207.22ZM196.62,186l-2,3.73c.28.13.55.27.83.39,2.75,1.28,3.94-1.63,6.92-2Z"/>
    <path d="M261.57,127.69a11.59,11.59,0,0,1-1.22.49c-1.59.5-2.16,0-2-1.75s0-3.8,0-5.71.06-3.78.1-5.67a12,12,0,0,0,.05-3.21A26.57,26.57,0,0,1,260,94.37c1.39-3.4,3.85-6.34,4.38-10.13.06-.42.78-.75,1.72-1.59C262.73,97.87,262.69,112.7,261.57,127.69Z"/>
    <path d="M199.72,209.71c1.41.11,2.62.24,3.83.29a26.26,26.26,0,0,1,2.81.05c.26,0,.61.76.58,1.14s-.58.65-.95.72a4.74,4.74,0,0,1-1.72,0c-1.94-.36-3-.07-3.1,2.39,0,1.14-1.4,2.24-2.16,3.37-.71-1.21-1.46-2.4-2.11-3.65a2.79,2.79,0,0,1-.19-1.39,6.31,6.31,0,0,1,.27-1.26,9.61,9.61,0,0,1,1.41.67c.27.19.4.57.9,1.35C199.49,211.72,199.62,210.55,199.72,209.71Z"/>
    <path d="M315.73,109.43c.44-5.14,4.31-7,7.83-9.2a1.66,1.66,0,0,1,1.12,0c.09.5.19,1.41,0,1.49-1.73.69-1.93,2.27-2.46,3.71a2.1,2.1,0,0,1-1.22.87c-1.67-1.59-2.21.39-3.09,1A18,18,0,0,0,315.73,109.43Z"/>
    <path d="M30.21,180.49c-.52-1.27-1.81-2.27,0-3.88,1.22-1.1,1.59-3.14,2.37-4.74s1.83-1.68,3.24-.8l-3.52,6.58,2.28,2-3.56,1Z"/>
    <path d="M225.38,414.63a8.17,8.17,0,0,1,2.52-.26c3.1.66,6.18,1.45,9.25,2.27.41.1.71.65,1.06,1-.45.32-.94,1-1.35.92a31.29,31.29,0,0,1-4.51-.79c-2.36-.57-4.7-1.22-7-1.84Z"/>
    <path d="M325.22,93.89c-.71.9-1.38,1.83-2.15,2.68a2.61,2.61,0,0,1-1.38.91c-.26,0-.75-.69-.91-1.14-1-3-.35-4.21,2.73-4.73a13.9,13.9,0,0,1,2.8.09Z"/>
    <path d="M204.78,170l5.39,2.47c-2,.79-1.1,4.33-4.17,3a3.78,3.78,0,0,1-1.89-2.3C203.9,172.26,204.48,171.18,204.78,170Z"/>
    <path d="M325.22,93.89c.36-.73.72-1.46,1.09-2.19l1.87-.91c2.09,3.48-1.81,4.85-2.44,7.35,0,.16-.9.32-1.22.15a1.31,1.31,0,0,1-.62-1.09C324.25,96.07,324.77,95,325.22,93.89Z"/>
    <path class="cls-1" d="M122.77,233.54a21.36,21.36,0,0,1-2.93.38c-.41,0-.82-.38-1.23-.59,1.66-2.57-4-4.91-.21-7.69.52-.37.06-2,.26-3,.16-.8,2.31-2.1,3.82-3,3.43-2,7.08-1.24,10.69-1.11.29,0,.57.33,1.21.72-.68.36-1.1.75-1.53.78-3,.18-5.75.59-6.42,4.31-.1.56-.9,1.07-1.48,1.45C122.17,227.64,121.2,230,122.77,233.54Z"/>
    <path class="cls-1" d="M104.52,190.72,94,186.07c1.36-.54,3-1.37,4.79.21a2.34,2.34,0,0,0,1.87.22,2.83,2.83,0,0,1,3.22,1.54C104.49,189.09,105.81,189.85,104.52,190.72Z"/>
    <path class="cls-1" d="M109.25,159.9c2.58-2.15,2.58-2.15-.18-4.59a6.87,6.87,0,0,1,4.9,1.75,2.08,2.08,0,0,1,.44,1.9,2.25,2.25,0,0,1-1.57,1.18A19.15,19.15,0,0,1,109.25,159.9Z"/>
    <path class="cls-1" d="M201.52,37.87c-.19-1.88-.72-3.61-.39-5.16.29-1.38,1.89-1.66,3.38-1.95s1.5.54,1.76,1.41c.1.33.26.64.45,1.12l-2-2.17Z"/>
    <path class="cls-1" d="M197.09,45.5l-2.43-5.62.63-.32c1.11,1.77,3.27,3,2.75,5.62Z"/>
    <path class="cls-1" d="M196.62,186l5.75,2.13c-3,.36-4.17,3.27-6.92,2-.28-.12-.55-.26-.83-.39Z"/>
  </g>
  <path d="M285.09,226.49c-5.88,0-23.4-1.33-26.87,5-2.46,4.51,2.57,8.06,5.81,9.89,4.46,2.52,9.57,2.72,14.22,4.92,3.91,1.86,7.2,4.55,11.19,6.23"/>
  <path d="M277.13,242.42c-4.83-.58-9.8,3-13,6a169.09,169.09,0,0,1,7.67,19.38c-2.7-2.05-6.52-3.39-7.68.65"/>
  <path d="M259,259.07c-.61-7.4,9.43-14.49,13.76-20.27"/>
  <path d="M272.79,240.25c-6.24,6-33.26,27.16-17.07,35.79,23.61,12.58,28.18-19.77,29.37-34.35"/>
  <path d="M224.28,269.2c10.17-1,7-15.69,8.4-22.3,4.2.74,6.39,8.34,8.94,11.91a36.92,36.92,0,0,0,13.79,11.84"/>
  <path d="M261.93,258.34c-4.32-4.6-9.15-8.79-11.25-15.66,7.57-1.06,15.82-.26,23.55-.26"/>
  <path d="M152.51,262.61c15.25,2.2,29.34-12.6,45.91-11.82-4.36,5.17-1,11,1.28,16.52,3.31,8,6.87,13.89,5.77,23.28"/>
</svg>
